<?xml version="1.0" encoding="UTF-8" standalone="no"?>
<svg
   height="128px"
   viewBox="0 0 128 128"
   width="128px"
   version="1.1"
   id="svg28574"
   sodipodi:docname="app.drey.Refrain.Devel.svg"
   inkscape:version="1.2 (dc2aedaf03, 2022-05-15)"
   xmlns:inkscape="http://www.inkscape.org/namespaces/inkscape"
   xmlns:sodipodi="http://sodipodi.sourceforge.net/DTD/sodipodi-0.dtd"
   xmlns="http://www.w3.org/2000/svg"
   xmlns:svg="http://www.w3.org/2000/svg">
  <defs
     id="defs28578" />
  <sodipodi:namedview
     id="namedview28576"
     pagecolor="#ffffff"
     bordercolor="#000000"
     borderopacity="0.25"
     inkscape:showpageshadow="2"
     inkscape:pageopacity="0.0"
     inkscape:pagecheckerboard="0"
     inkscape:deskcolor="#d1d1d1"
     showgrid="false"
     inkscape:zoom="0.65186406"
     inkscape:cx="172.58199"
     inkscape:cy="-116.58872"
     inkscape:window-width="1680"
     inkscape:window-height="981"
     inkscape:window-x="0"
     inkscape:window-y="0"
     inkscape:window-maximized="1"
     inkscape:current-layer="svg28574" />
  <clipPath
     id="a">
    <rect
       height="128"
       width="128"
       id="rect28512" />
  </clipPath>
  <clipPath
     id="b">
    <rect
       height="128"
       width="128"
       id="rect28515" />
  </clipPath>
  <filter
     id="c"
     height="1"
     width="1"
     x="0"
     y="0">
    <feColorMatrix
       in="SourceGraphic"
       type="matrix"
       values="0 0 0 0 1 0 0 0 0 1 0 0 0 0 1 0 0 0 1 0"
       id="feColorMatrix28518" />
  </filter>
  <mask
     id="d">
    <g
       clip-path="url(#b)"
       filter="url(#c)"
       id="g28535">
      <g
         clip-path="url(#a)"
         id="g28533">
        <path
           d="m 106.074219 21.925781 c -23.308594 -23.3125 -60.839844 -23.3125 -84.148438 0 c -23.3125 23.308594 -23.3125 60.839844 0 84.148438 c 23.308594 23.3125 60.839844 23.3125 84.148438 0 c 23.3125 -23.308594 23.3125 -60.839844 0 -84.148438 z m -36.417969 36.417969 c 3.132812 3.132812 3.132812 8.179688 0 11.3125 s -8.179688 3.132812 -11.3125 0 s -3.132812 -8.179688 0 -11.3125 s 8.179688 -3.132812 11.3125 0 z m 0 0"
           fill="#333333"
           id="path28521" />
        <path
           d="m 106.074219 21.925781 l -36.417969 36.417969 c 3.132812 3.132812 3.132812 8.179688 0 11.3125 l 36.417969 36.417969 c 23.3125 -23.308594 23.3125 -60.839844 0 -84.148438 z m -84.148438 0 c -23.3125 23.308594 -23.3125 60.839844 0 84.148438 l 36.417969 -36.417969 c -3.132812 -3.132812 -3.132812 -8.179688 0 -11.3125 z m 0 0"
           fill="#404040"
           id="path28523" />
        <path
           d="m 83.085938 44.914062 c -10.574219 -10.570312 -27.597657 -10.570312 -38.171876 0 c -10.570312 10.574219 -10.570312 27.597657 0 38.171876 c 10.574219 10.570312 27.597657 10.570312 38.171876 0 c 10.570312 -10.574219 10.570312 -27.597657 0 -38.171876 z m -13.429688 13.429688 c 3.132812 3.132812 3.132812 8.179688 0 11.3125 s -8.179688 3.132812 -11.3125 0 s -3.132812 -8.179688 0 -11.3125 s 8.179688 -3.132812 11.3125 0 z m 0 0"
           fill="#333333"
           id="path28525" />
        <path
           d="m 79.777344 48.222656 c -8.738282 -8.742187 -22.816406 -8.742187 -31.554688 0 c -8.742187 8.738282 -8.742187 22.816406 0 31.554688 c 8.738282 8.742187 22.816406 8.742187 31.554688 0 c 8.742187 -8.738282 8.742187 -22.816406 0 -31.554688 z m -10.828125 10.828125 c 2.742187 2.742188 2.742187 7.15625 0 9.898438 c -2.742188 2.742187 -7.15625 2.742187 -9.898438 0 c -2.742187 -2.742188 -2.742187 -7.15625 0 -9.898438 c 2.742188 -2.742187 7.15625 -2.742187 9.898438 0 z m 0 0"
           fill="#e5a50a"
           id="path28527" />
        <path
           d="m 98.804688 29.195312 c -19.269532 -19.273437 -50.339844 -19.273437 -69.609376 0 c -19.273437 19.269532 -19.273437 50.339844 0 69.609376 c 19.269532 19.273437 50.339844 19.273437 69.609376 0 c 19.273437 -19.269532 19.273437 -50.339844 0 -69.609376 z m -1.386719 1.386719 c 18.527343 18.523438 18.527343 48.3125 0 66.835938 c -18.523438 18.527343 -48.3125 18.527343 -66.835938 0 c -18.527343 -18.523438 -18.527343 -48.3125 0 -66.835938 c 18.523438 -18.527343 48.3125 -18.527343 66.835938 0 z m 0 0"
           fill="#333333"
           id="path28529" />
        <path
           d="m 91.15625 36.84375 c -15.035156 -15.03125 -39.277344 -15.03125 -54.3125 0 c -15.03125 15.035156 -15.03125 39.277344 0 54.3125 c 15.035156 15.03125 39.277344 15.03125 54.3125 0 c 15.03125 -15.035156 15.03125 -39.277344 0 -54.3125 z m -1.390625 1.390625 c 14.289063 14.285156 14.289063 37.246094 0 51.53125 c -14.285156 14.289063 -37.246094 14.289063 -51.53125 0 c -14.289063 -14.285156 -14.289063 -37.246094 0 -51.53125 c 14.285156 -14.289063 37.246094 -14.289063 51.53125 0 z m 0 0"
           fill="#333333"
           id="path28531" />
      </g>
    </g>
  </mask>
  <mask
     id="e">
    <g
       filter="url(#c)"
       id="g28540">
      <rect
         fill-opacity="0.8"
         height="128"
         width="128"
         id="rect28538" />
    </g>
  </mask>
  <linearGradient
     id="f"
     gradientTransform="matrix(0 0.37 -0.98462 0 295.38501 -30.360001)"
     gradientUnits="userSpaceOnUse"
     x1="300"
     x2="428"
     y1="235"
     y2="235">
    <stop
       offset="0"
       stop-color="#f9f06b"
       id="stop28543" />
    <stop
       offset="1"
       stop-color="#f5c211"
       id="stop28545" />
  </linearGradient>
  <clipPath
     id="g">
    <rect
       height="128"
       width="128"
       id="rect28548" />
  </clipPath>
  <clipPath
     id="h">
    <rect
       height="128"
       width="128"
       id="rect28551" />
  </clipPath>
  <path
     d="m 106.074219 21.925781 c -23.308594 -23.3125 -60.839844 -23.3125 -84.148438 0 c -23.3125 23.308594 -23.3125 60.839844 0 84.148438 c 23.308594 23.3125 60.839844 23.3125 84.148438 0 c 23.3125 -23.308594 23.3125 -60.839844 0 -84.148438 z m -36.417969 36.417969 c 3.132812 3.132812 3.132812 8.179688 0 11.3125 s -8.179688 3.132812 -11.3125 0 s -3.132812 -8.179688 0 -11.3125 s 8.179688 -3.132812 11.3125 0 z m 0 0"
     fill="#333333"
     id="path28554" />
  <path
     d="m 106.074219 21.925781 l -36.417969 36.417969 c 3.132812 3.132812 3.132812 8.179688 0 11.3125 l 36.417969 36.417969 c 23.3125 -23.308594 23.3125 -60.839844 0 -84.148438 z m -84.148438 0 c -23.3125 23.308594 -23.3125 60.839844 0 84.148438 l 36.417969 -36.417969 c -3.132812 -3.132812 -3.132812 -8.179688 0 -11.3125 z m 0 0"
     fill="#404040"
     id="path28556" />
  <path
     d="m 98.804688 29.195312 c -19.269532 -19.273437 -50.339844 -19.273437 -69.609376 0 c -19.273437 19.269532 -19.273437 50.339844 0 69.609376 c 19.269532 19.273437 50.339844 19.273437 69.609376 0 c 19.273437 -19.269532 19.273437 -50.339844 0 -69.609376 z m -1.386719 1.386719 c 18.527343 18.523438 18.527343 48.3125 0 66.835938 c -18.523438 18.527343 -48.3125 18.527343 -66.835938 0 c -18.527343 -18.523438 -18.527343 -48.3125 0 -66.835938 c 18.523438 -18.527343 48.3125 -18.527343 66.835938 0 z m 0 0"
     fill="#333333"
     id="path28562" />
  <path
     d="m 91.15625 36.84375 c -15.035156 -15.03125 -39.277344 -15.03125 -54.3125 0 c -15.03125 15.035156 -15.03125 39.277344 0 54.3125 c 15.035156 15.03125 39.277344 15.03125 54.3125 0 c 15.03125 -15.035156 15.03125 -39.277344 0 -54.3125 z m -1.390625 1.390625 c 14.289063 14.285156 14.289063 37.246094 0 51.53125 c -14.285156 14.289063 -37.246094 14.289063 -51.53125 0 c -14.289063 -14.285156 -14.289063 -37.246094 0 -51.53125 c 14.285156 -14.289063 37.246094 -14.289063 51.53125 0 z m 0 0"
     fill="#333333"
     id="path28564" />
  <g
     clip-path="url(#h)"
     mask="url(#d)"
     id="g28572">
    <g
       clip-path="url(#g)"
       mask="url(#e)"
       id="g28570">
      <path
         d="m 128 80.640625 v 47.359375 h -128 v -47.359375 z m 0 0"
         fill="url(#f)"
         id="path28566" />
      <path
         d="m 13.308594 80.640625 l 47.355468 47.359375 h 21.214844 l -47.359375 -47.359375 z m 42.421875 0 l 47.363281 47.359375 h 21.214844 l -47.363282 -47.359375 z m 42.429687 0 l 29.839844 29.839844 v -21.210938 l -8.628906 -8.628906 z m -98.160156 7.90625 v 21.214844 l 18.238281 18.238281 h 21.214844 z m 0 0"
         id="path28568" />
    </g>
  </g>
  <path
     d="m 83.085938 44.914062 c -10.574219 -10.570312 -27.597657 -10.570312 -38.171876 0 c -10.570312 10.574219 -10.570312 27.597657 0 38.171876 c 10.574219 10.570312 27.597657 10.570312 38.171876 0 c 10.570312 -10.574219 10.570312 -27.597657 0 -38.171876 z m -13.429688 13.429688 c 3.132812 3.132812 3.132812 8.179688 0 11.3125 s -8.179688 3.132812 -11.3125 0 s -3.132812 -8.179688 0 -11.3125 s 8.179688 -3.132812 11.3125 0 z m 0 0"
     fill="#333333"
     id="path28558" />
  <path
     d="m 79.777344 48.222656 c -8.738282 -8.742187 -22.816406 -8.742187 -31.554688 0 c -8.742187 8.738282 -8.742187 22.816406 0 31.554688 c 8.738282 8.742187 22.816406 8.742187 31.554688 0 c 8.742187 -8.738282 8.742187 -22.816406 0 -31.554688 z m -10.828125 10.828125 c 2.742187 2.742188 2.742187 7.15625 0 9.898438 c -2.742188 2.742187 -7.15625 2.742187 -9.898438 0 c -2.742187 -2.742188 -2.742187 -7.15625 0 -9.898438 c 2.742188 -2.742187 7.15625 -2.742187 9.898438 0 z m 0 0"
     fill="#e5a50a"
     id="path28560" />
</svg>
